<svg width="13" height="13" viewBox="0 0 13 13" fill="none" xmlns="http://www.w3.org/2000/svg">
<rect width="13" height="13" rx="2" fill="#1B2C29"/>
<path d="M8.10183 3.72727H9.41931V8.47869C9.41931 8.99953 9.2962 9.45762 9.04999 9.85298C8.80614 10.2483 8.46287 10.5573 8.02016 10.7798C7.57745 11 7.06017 11.1101 6.46831 11.1101C5.87409 11.1101 5.35562 11 4.91291 10.7798C4.47021 10.5573 4.12693 10.2483 3.88308 9.85298C3.63924 9.45762 3.51732 8.99953 3.51732 8.47869V3.72727H4.83479V8.36861C4.83479 8.67164 4.90108 8.94152 5.03365 9.17827C5.1686 9.41501 5.35799 9.60085 5.60183 9.7358C5.84568 9.86837 6.1345 9.93466 6.46831 9.93466C6.80212 9.93466 7.09094 9.86837 7.33479 9.7358C7.581 9.60085 7.7704 9.41501 7.90297 9.17827C8.03555 8.94152 8.10183 8.67164 8.10183 8.36861V3.72727ZM5.40652 2.92472C5.2195 2.92472 5.05733 2.85843 4.92002 2.72585C4.78507 2.59328 4.7176 2.43703 4.7176 2.2571C4.7176 2.06771 4.78507 1.90909 4.92002 1.78125C5.05733 1.65104 5.2195 1.58594 5.40652 1.58594C5.59828 1.58594 5.75927 1.65104 5.88948 1.78125C6.02205 1.90909 6.08834 2.06771 6.08834 2.2571C6.08834 2.43703 6.02205 2.59328 5.88948 2.72585C5.75927 2.85843 5.59828 2.92472 5.40652 2.92472ZM7.5372 2.92472C7.35018 2.92472 7.18801 2.85843 7.0507 2.72585C6.91575 2.59328 6.84828 2.43703 6.84828 2.2571C6.84828 2.06771 6.91575 1.90909 7.0507 1.78125C7.18801 1.65104 7.35018 1.58594 7.5372 1.58594C7.72897 1.58594 7.88995 1.65104 8.02016 1.78125C8.15273 1.90909 8.21902 2.06771 8.21902 2.2571C8.21902 2.43703 8.15273 2.59328 8.02016 2.72585C7.88995 2.85843 7.72897 2.92472 7.5372 2.92472Z" fill="#03DB88"/>
</svg>
