<svg width="30" height="30" viewBox="0 0 30 30" fill="none" xmlns="http://www.w3.org/2000/svg">
<path d="M7.5 25C6.8125 25 6.22417 24.7554 5.735 24.2663C5.24583 23.7771 5.00083 23.1884 5 22.5V20C5 19.6459 5.12 19.3492 5.36 19.11C5.6 18.8709 5.89667 18.7509 6.25 18.75C6.60333 18.7492 6.90042 18.8692 7.14125 19.11C7.38208 19.3509 7.50167 19.6475 7.5 20V22.5H22.5V20C22.5 19.6459 22.62 19.3492 22.86 19.11C23.1 18.8709 23.3967 18.7509 23.75 18.75C24.1033 18.7492 24.4004 18.8692 24.6412 19.11C24.8821 19.3509 25.0017 19.6475 25 20V22.5C25 23.1875 24.7554 23.7763 24.2663 24.2663C23.7771 24.7563 23.1883 25.0009 22.5 25H7.5ZM13.75 9.81252L11.4062 12.1563C11.1562 12.4063 10.8596 12.5263 10.5163 12.5163C10.1729 12.5063 9.87583 12.3759 9.625 12.125C9.39583 11.875 9.27583 11.5834 9.265 11.25C9.25417 10.9167 9.37417 10.625 9.625 10.375L14.125 5.87502C14.25 5.75002 14.3854 5.66169 14.5312 5.61002C14.6771 5.55835 14.8333 5.5321 15 5.53127C15.1667 5.53044 15.3229 5.55669 15.4688 5.61002C15.6146 5.66335 15.75 5.75169 15.875 5.87502L20.375 10.375C20.625 10.625 20.745 10.9167 20.735 11.25C20.725 11.5834 20.605 11.875 20.375 12.125C20.125 12.375 19.8283 12.5054 19.485 12.5163C19.1417 12.5271 18.8446 12.4071 18.5938 12.1563L16.25 9.81252V18.75C16.25 19.1042 16.13 19.4013 15.89 19.6413C15.65 19.8813 15.3533 20.0009 15 20C14.6467 19.9992 14.35 19.8792 14.11 19.64C13.87 19.4009 13.75 19.1042 13.75 18.75V9.81252Z" fill="#03DB88"/>
</svg>
