<svg width="21" height="21" viewBox="0 0 21 21" fill="none" xmlns="http://www.w3.org/2000/svg">
<path d="M10.5 0.916748C8.60462 0.916748 6.75178 1.4788 5.17581 2.53183C3.59984 3.58486 2.37152 5.08157 1.64618 6.8327C0.920839 8.58382 0.731057 10.5107 1.10083 12.3697C1.47061 14.2287 2.38333 15.9363 3.72358 17.2765C5.06384 18.6168 6.77143 19.5295 8.63041 19.8993C10.4894 20.269 12.4163 20.0793 14.1674 19.3539C15.9185 18.6286 17.4152 17.4003 18.4683 15.8243C19.5213 14.2483 20.0834 12.3955 20.0834 10.5001C20.0808 7.9592 19.0703 5.52312 17.2737 3.72644C15.477 1.92977 13.0409 0.919285 10.5 0.916748ZM16.1916 8.30837V8.92746C16.1916 8.97484 16.1821 9.02174 16.1637 9.0654C16.1453 9.10906 16.1183 9.14858 16.0843 9.18163C16.0504 9.21469 16.0102 9.2406 15.966 9.25785C15.9219 9.27509 15.8748 9.28332 15.8274 9.28204C14.8156 9.21055 13.8475 8.84108 13.0454 8.22021V12.7512C13.0451 13.2527 12.945 13.7491 12.7509 14.2114C12.5567 14.6738 12.2724 15.0928 11.9145 15.4441C11.5537 15.8046 11.1246 16.0894 10.6523 16.282C10.18 16.4745 9.6741 16.5708 9.16411 16.5654C8.13857 16.5639 7.15425 16.1615 6.42136 15.4441C5.95502 14.974 5.61913 14.3905 5.44673 13.7511C5.27433 13.1118 5.27136 12.4385 5.43811 11.7977C5.59048 11.1824 5.89811 10.617 6.33223 10.156C6.65599 9.76033 7.06409 9.44198 7.52669 9.22427C7.9893 9.00657 8.49472 8.89501 9.00598 8.89775H9.79182V10.5298C9.79216 10.5772 9.7824 10.6241 9.76319 10.6674C9.74397 10.7108 9.71573 10.7495 9.68037 10.7811C9.645 10.8126 9.60331 10.8363 9.55808 10.8505C9.51285 10.8646 9.46512 10.869 9.41807 10.8633C8.9618 10.7262 8.47014 10.7717 8.04673 10.9901C7.62332 11.2085 7.30124 11.5827 7.14839 12.0339C6.99554 12.4852 7.02385 12.9781 7.22737 13.4089C7.43088 13.8396 7.79369 14.1745 8.23932 14.343C8.49807 14.4915 8.78748 14.5787 9.08457 14.5989C9.31457 14.6085 9.54457 14.5797 9.76307 14.5107C10.1278 14.3876 10.4451 14.1538 10.6707 13.8419C10.8962 13.5299 11.0188 13.1553 11.0214 12.7704V4.51433C11.0214 4.423 11.0576 4.33539 11.1221 4.27072C11.1866 4.20605 11.2741 4.16958 11.3654 4.16933H12.7214C12.8096 4.16944 12.8943 4.20325 12.9583 4.26384C13.0222 4.32443 13.0606 4.40719 13.0655 4.49516C13.1149 4.91801 13.2492 5.32652 13.4603 5.69621C13.6714 6.0659 13.955 6.38917 14.2941 6.64662C14.7522 6.99056 15.2964 7.20146 15.8667 7.25612C15.9521 7.26343 16.032 7.30143 16.0915 7.3631C16.1511 7.42477 16.1863 7.50592 16.1906 7.59154L16.1916 8.30837Z" fill="#03DB88"/>
</svg>
