<svg width="11" height="11" viewBox="0 0 11 11" fill="none" xmlns="http://www.w3.org/2000/svg">
<path d="M2.29167 9.16671V8.70837C2.29167 7.85747 2.62969 7.04142 3.23137 6.43974C3.83305 5.83806 4.6491 5.50004 5.50001 5.50004M5.50001 5.50004C6.35091 5.50004 7.16696 5.83806 7.76864 6.43974C8.37032 7.04142 8.70834 7.85747 8.70834 8.70837V9.16671M5.50001 5.50004C5.98624 5.50004 6.45255 5.30689 6.79637 4.96307C7.14018 4.61925 7.33334 4.15294 7.33334 3.66671C7.33334 3.18048 7.14018 2.71416 6.79637 2.37034C6.45255 2.02653 5.98624 1.83337 5.50001 1.83337C5.01377 1.83337 4.54746 2.02653 4.20364 2.37034C3.85983 2.71416 3.66667 3.18048 3.66667 3.66671C3.66667 4.15294 3.85983 4.61925 4.20364 4.96307C4.54746 5.30689 5.01377 5.50004 5.50001 5.50004Z" stroke="#03DB88" stroke-linecap="round" stroke-linejoin="round"/>
</svg>
