<svg width="15" height="15" viewBox="0 0 15 15" fill="none" xmlns="http://www.w3.org/2000/svg">
<path d="M12.5 5.625L11.2531 12.7163C11.2023 13.0059 11.0509 13.2683 10.8257 13.4573C10.6005 13.6464 10.3159 13.75 10.0219 13.75H4.97813C4.68409 13.75 4.39946 13.6464 4.17427 13.4573C3.94908 13.2683 3.79774 13.0059 3.74687 12.7163L2.5 5.625M13.125 3.75H9.60938M9.60938 3.75V2.5C9.60938 2.16848 9.47768 1.85054 9.24326 1.61612C9.00884 1.3817 8.6909 1.25 8.35938 1.25H6.64062C6.3091 1.25 5.99116 1.3817 5.75674 1.61612C5.52232 1.85054 5.39062 2.16848 5.39062 2.5V3.75M9.60938 3.75H5.39062M1.875 3.75H5.39062" stroke="#14AE5C" stroke-width="1.5" stroke-linecap="round" stroke-linejoin="round"/>
</svg>
