<svg width="20" height="19" viewBox="0 0 20 19" fill="none" xmlns="http://www.w3.org/2000/svg">
<path d="M9.86968 0C15.0994 0 19.3291 4.2297 19.3291 9.4594C19.3291 14.6891 15.0994 18.9188 9.86968 18.9188C4.63998 18.9188 0.410278 14.6891 0.410278 9.4594C0.410278 4.2297 4.63998 0 9.86968 0ZM8.13996 14.4459C12.3291 14.4459 14.6264 10.9729 14.6264 7.95941V7.66212C15.0724 7.33779 15.4642 6.93239 15.7615 6.47293C15.3561 6.64861 14.9102 6.77023 14.4507 6.8378C14.9237 6.55401 15.2886 6.10807 15.4507 5.58105C15.0048 5.8378 14.5183 6.02699 14.0048 6.1351C13.5859 5.68915 12.9913 5.41889 12.3426 5.41889C11.0859 5.41889 10.0589 6.44591 10.0589 7.70266C10.0589 7.87833 10.0724 8.05401 10.1264 8.21617C8.23455 8.12157 6.54538 7.21617 5.42376 5.8378C5.23457 6.17564 5.11295 6.56753 5.11295 6.98644C5.11295 7.77022 5.51836 8.47292 6.12646 8.87832C5.74808 8.87832 5.39673 8.77022 5.09944 8.59454V8.62157C5.09944 9.72967 5.88322 10.6486 6.92375 10.8648C6.73456 10.9189 6.53186 10.9459 6.32916 10.9459C6.18051 10.9459 6.04538 10.9324 5.89673 10.9053C6.18051 11.8107 7.03186 12.4729 8.01834 12.4864C7.23456 13.0945 6.24808 13.4594 5.18052 13.4594C4.99133 13.4594 4.81566 13.4594 4.63998 13.4324C5.63998 14.081 6.84267 14.4594 8.12645 14.4594" fill="#03DB88"/>
</svg>
