<svg width="20" height="20" viewBox="0 0 20 20" fill="none" xmlns="http://www.w3.org/2000/svg">
<path d="M11.61 10.243C11.604 10.5598 11.504 10.8677 11.3228 11.1276C11.1416 11.3875 10.8873 11.5878 10.5921 11.703C10.297 11.8182 9.97428 11.8432 9.66491 11.7748C9.35554 11.7064 9.07343 11.5477 8.85436 11.3188C8.63529 11.0899 8.48911 10.8011 8.43435 10.4891C8.3796 10.177 8.41873 9.85567 8.54679 9.56586C8.67485 9.27605 8.88607 9.03079 9.15368 8.86116C9.4213 8.69153 9.73324 8.60518 10.05 8.61304C10.4709 8.62863 10.8692 8.80754 11.1604 9.11182C11.4516 9.41611 11.6129 9.82186 11.61 10.243Z" fill="#03DB88"/>
<path d="M12.763 5.23291H7.33797C6.80117 5.23291 6.28635 5.44615 5.90678 5.82573C5.52721 6.2053 5.31396 6.72011 5.31396 7.25691V12.8039C5.31396 13.0697 5.36632 13.3329 5.46803 13.5785C5.56975 13.824 5.71883 14.0471 5.90678 14.2351C6.09473 14.423 6.31785 14.5721 6.56341 14.6738C6.80898 14.7756 7.07217 14.8279 7.33797 14.8279H12.763C13.0288 14.8279 13.292 14.7756 13.5375 14.6738C13.7831 14.5721 14.0062 14.423 14.1941 14.2351C14.3821 14.0471 14.5312 13.824 14.6329 13.5785C14.7346 13.3329 14.787 13.0697 14.787 12.8039V7.26691C14.788 7.00035 14.7365 6.7362 14.6352 6.4896C14.534 6.243 14.3851 6.0188 14.1971 5.82985C14.0091 5.64089 13.7856 5.4909 13.5395 5.38847C13.2934 5.28603 13.0295 5.23317 12.763 5.23291ZM10.05 12.9559C9.51293 12.968 8.98446 12.8199 8.532 12.5303C8.07955 12.2408 7.72362 11.823 7.50965 11.3303C7.29568 10.8376 7.23338 10.2923 7.33068 9.76397C7.42799 9.23569 7.68049 8.74837 8.05597 8.36423C8.43145 7.98008 8.91287 7.71652 9.4388 7.60718C9.96472 7.49785 10.5113 7.54769 11.0088 7.75036C11.5062 7.95303 11.9321 8.29933 12.2318 8.74506C12.5316 9.19079 12.6918 9.71574 12.692 10.2529C12.6963 10.604 12.6314 10.9524 12.5009 11.2784C12.3704 11.6043 12.177 11.9013 11.9316 12.1524C11.6862 12.4034 11.3937 12.6036 11.0708 12.7415C10.7479 12.8794 10.401 12.9523 10.05 12.9559ZM12.986 7.55091C12.92 7.55092 12.8547 7.53777 12.7938 7.51222C12.733 7.48667 12.6778 7.44924 12.6317 7.40212C12.5855 7.355 12.5491 7.29913 12.5248 7.23779C12.5005 7.17646 12.4886 7.11088 12.49 7.04491C12.49 6.91071 12.5433 6.78201 12.6382 6.68711C12.7331 6.59222 12.8618 6.53891 12.996 6.53891C13.1302 6.53891 13.2589 6.59222 13.3538 6.68711C13.4487 6.78201 13.502 6.91071 13.502 7.04491C13.504 7.11635 13.4905 7.18737 13.4625 7.25311C13.4345 7.31886 13.3926 7.37778 13.3397 7.42583C13.2868 7.47388 13.2241 7.50994 13.156 7.53153C13.0879 7.55311 13.0159 7.55973 12.945 7.55091H12.986Z" fill="#03DB88"/>
<path d="M10.05 0.000125174C7.39784 -0.0131357 4.84903 1.02771 2.96429 2.8937C1.07955 4.75969 0.0132639 7.29796 3.10359e-06 9.95012C-0.0132577 12.6023 1.02759 15.1511 2.89358 17.0358C4.75957 18.9206 7.29784 19.9869 9.95 20.0001C11.2632 20.0067 12.5649 19.7545 13.7806 19.2581C14.9964 18.7616 16.1025 18.0305 17.0357 17.1065C17.9689 16.1826 18.7111 15.0839 19.2197 13.8732C19.7283 12.6624 19.9934 11.3633 20 10.0501C20.0066 8.73691 19.7544 7.43525 19.2579 6.21948C18.7615 5.00372 18.0304 3.89764 17.1064 2.96441C16.1825 2.03118 15.0838 1.28908 13.873 0.780464C12.6623 0.271851 11.3632 0.00669127 10.05 0.000125174ZM16.123 12.7021C16.1258 13.1508 16.0395 13.5955 15.8691 14.0105C15.6988 14.4256 15.4477 14.8026 15.1305 15.1199C14.8133 15.4372 14.4363 15.6884 14.0213 15.8589C13.6063 16.0294 13.1616 16.1158 12.713 16.1131H7.389C6.94037 16.1159 6.49565 16.0296 6.08061 15.8593C5.66558 15.6889 5.28849 15.4378 4.9712 15.1206C4.65392 14.8034 4.40275 14.4264 4.23226 14.0114C4.06177 13.5965 3.97535 13.1518 3.978 12.7031V7.37813C3.97522 6.92949 4.06151 6.48477 4.23188 6.06973C4.40225 5.6547 4.6533 5.27761 4.97049 4.96033C5.28769 4.64304 5.6647 4.39187 6.07969 4.22138C6.49467 4.05089 6.93937 3.96447 7.388 3.96713H12.713C13.1616 3.96447 13.6062 4.05086 14.0211 4.22129C14.436 4.39172 14.813 4.6428 15.1302 4.95997C15.4473 5.27715 15.6984 5.65412 15.8688 6.06904C16.0393 6.48396 16.1257 6.92858 16.123 7.37713V12.7021Z" fill="#03DB88"/>
</svg>
